<?xml version="1.0" encoding="utf-8"?>
<!-- Generator: Adobe Illustrator 22.1.0, SVG Export Plug-In . SVG Version: 6.00 Build 0)  -->
<svg version="1.1" id="Layer_1" xmlns="http://www.w3.org/2000/svg" xmlns:xlink="http://www.w3.org/1999/xlink" x="0px" y="0px"
	 viewBox="0 0 300 300" style="enable-background:new 0 0 300 300;" xml:space="preserve">
<style type="text/css">
	.st0{fill:url(#SVGID_1_);}
	.st1{fill:url(#SVGID_2_);}
	.st2{fill:url(#SVGID_3_);}
	.st3{fill:url(#SVGID_4_);}
	.st4{fill:url(#SVGID_5_);}
	.st5{fill:#FFFFFF;}
	.st6{fill:url(#SVGID_6_);}
	.st7{fill:url(#SVGID_7_);}
	.st8{fill:url(#SVGID_8_);}
	.st9{fill:url(#SVGID_9_);}
	.st10{fill:url(#SVGID_10_);}
	.st11{fill:url(#SVGID_11_);}
	.st12{fill:url(#SVGID_12_);}
	.st13{fill:url(#SVGID_13_);}
	.st14{fill:url(#SVGID_14_);}
</style>
<g>
	<g>
		<linearGradient id="SVGID_1_" gradientUnits="userSpaceOnUse" x1="233.1505" y1="7.1409" x2="13.9455" y2="204.5139">
			<stop  offset="0" style="stop-color:#1C467E"/>
			<stop  offset="0.4168" style="stop-color:#0F60A0"/>
			<stop  offset="0.7702" style="stop-color:#0771B5"/>
			<stop  offset="1" style="stop-color:#0477BD"/>
		</linearGradient>
		<path class="st0" d="M161.5,56.5c-11.3,4.8-18.1,13.4-15.3,19.3c1.3,2.7,4.4,4.3,8.4,4.8c-3.1-0.6-5.5-2.1-6.5-4.3
			c-2.5-5.5,3.7-13.5,13.8-18c10.1-4.5,20.4-3.7,23,1.6c2.4,4.9-2.4,12.1-11.1,16.8c10-5,15.8-13,13-18.4
			C183.9,52.5,172.6,51.7,161.5,56.5z"/>
		<linearGradient id="SVGID_2_" gradientUnits="userSpaceOnUse" x1="240.4971" y1="15.4989" x2="21.2922" y2="212.8719">
			<stop  offset="0" style="stop-color:#1C467E"/>
			<stop  offset="0.4168" style="stop-color:#0F60A0"/>
			<stop  offset="0.7702" style="stop-color:#0771B5"/>
			<stop  offset="1" style="stop-color:#0477BD"/>
		</linearGradient>
		<path class="st1" d="M246.7,33.2c23.7-1.4,41.5,3.4,53.3,10.3c-13.8-12.9-29.9-18.9-44.4-21.5c-14.5-2.6-27.5-2-35.2-1.4
			c20.9-7.4,40.9-9.5,57-8.9c-23.2-3.4-41.8-3.1-57.1-0.9C205,13,192.9,17,182.6,20.9C196.8,10.7,214.4,4,230.1,0.1
			c-25.7,4.3-43.6,9.5-57.1,15.1c-13.6,5.6-22.7,11.7-30.8,17.6c5.5-10.6,18-19.9,30.9-26.6c-23.8,10.2-38.7,19.5-48.3,27.5
			c-9.7,8.1-14.2,15-17.2,20c-4.6-8.6,0.6-18.6,8.7-26.9C98.3,41.4,90.7,53.2,87.9,62.1c-2.8,9-0.9,15-0.3,17.9
			c-15.6-3.6-20-12-18.9-20.5c-7.4,16.7-2.9,27.7,4.1,34.8c7,7.1,16.4,10.1,18.5,10.7c-24.6,4.8-40.6,1.3-48.9-4.7
			c8,12.2,27.2,17.5,44.2,19.8c17.1,2.2,32.1,1.4,32.1,1.4c-24,12.4-47.1,17.4-64.6,17.8c2.2,0.3,10.2,2.3,22,2.8
			c38.3,1.7,81.3-11.1,110.7-35.7c-5.9,10.6-16.9,19-26.6,26.4c-9.8,7.4-15.5,11.8-15.5,11.8c4.3-0.1,18.1-4.3,38.2-15
			c19.8-10.6,40.8-26.9,46.8-48.6c2.8,13-1.2,24.6-6,33c-4.8,8.5-10.4,13.6-10.4,13.6s7.7-1.9,17.3-10.8
			c13.9-12.5,19.8-25.8,21.8-36.7c1.9-10.8,0.2-19.2-1.4-22.1c19,7.6,26.8,20.6,27.5,34c5.1-21.6-1.9-35.9-10.5-44.9
			C259.3,38.1,248.9,34.1,246.7,33.2z M209.7,42c13.9,1.5,25.9,6.7,32,15.7c6.1,9.1,6.2,22.1-4.2,39.4c3.5-25.1-14.6-38.7-21.1-42.8
			c7.2,6.5,9.7,16.2,5.5,27.6c-4.3,11.6-24.2,33.4-47,45.4c0,0,35.2-32.1,32.6-56.3c0,0,0,0,0,0s-0.4,4.9-5.7,12.8
			c-3.9,5.7-10.4,13-21.3,21.1c-22.4,16.6-52.2,25.8-79.5,29.9c40.2-11.4,77.5-41.3,83.4-48.4c-18.5,14.5-41.6,26.5-65.2,29.6
			c-15,2-32.3,0.9-44.9-3c12.5,1.3,56.6-3.5,80.7-18.8c-17.3,6.6-35.9,9.9-51.1,8.6c-15.2-1.4-28.3-11-32.2-22.9
			c4.7,5.5,33.8,16.3,54.2,11.2C104.5,90.2,84.3,76,101,49.6c1.2,19.3,11.2,25.9,19.9,30.2c-8.2-4.7-11.7-12.1-8.9-21.2
			c2.7-9,13.6-21.6,29.8-32.6c-7.8,6.7-18.2,29.6-15.6,38.4c0-7.7,5.1-16.7,15.3-25.5c10.1-8.7,25.2-17.4,45.4-24.4
			c-11.3,5-37.1,23-43.5,35.4c7.3-8.3,19.1-16.5,34.2-22.9c14.9-6.4,33.1-11.2,53.5-12.8C218.1,16.3,184.3,28,167.2,40
			c12.7-6.7,28.5-12.1,45.1-14.5c16.6-2.3,34-1.7,50.1,3.5c-11.7-2.1-51,0.6-67.9,7.7c15.2-3.4,28.2-3.8,42.2-0.6
			c14,3.2,25.6,10.4,31.4,22.9C261.9,52,226.5,38,209.7,42z"/>
		<linearGradient id="SVGID_3_" gradientUnits="userSpaceOnUse" x1="233.1505" y1="7.3394" x2="13.9455" y2="204.7125">
			<stop  offset="0" style="stop-color:#1C467E"/>
			<stop  offset="0.4168" style="stop-color:#0F60A0"/>
			<stop  offset="0.7702" style="stop-color:#0771B5"/>
			<stop  offset="1" style="stop-color:#0477BD"/>
		</linearGradient>
		<path class="st2" d="M161.5,56.7c-11.3,4.8-18.1,13.4-15.3,19.3c1.3,2.7,4.4,4.3,8.4,4.8c-3.1-0.6-5.5-2.1-6.5-4.3
			c-2.5-5.5,3.7-13.5,13.8-18c10.1-4.5,20.4-3.7,23,1.6c2.4,4.9-2.4,12.1-11.1,16.8c10-5,15.8-13,13-18.4
			C183.9,52.7,172.6,51.9,161.5,56.7z"/>
		<linearGradient id="SVGID_4_" gradientUnits="userSpaceOnUse" x1="237.3704" y1="12.0263" x2="18.1655" y2="209.3993">
			<stop  offset="0" style="stop-color:#1C467E"/>
			<stop  offset="0.4168" style="stop-color:#0F60A0"/>
			<stop  offset="0.7702" style="stop-color:#0771B5"/>
			<stop  offset="1" style="stop-color:#0477BD"/>
		</linearGradient>
		<path class="st3" d="M236.8,36.1c-14-3.2-27-2.8-42.2,0.6c16.9-7.1,56.2-9.8,67.9-7.7c-16.1-5.2-33.6-5.9-50.1-3.5
			c-16.6,2.4-32.4,7.7-45.1,14.5c17-12,50.9-23.7,63.8-25.8c-20.5,1.6-38.6,6.4-53.5,12.8c-15,6.5-26.8,14.7-34.2,22.9
			c6.4-12.4,32.1-30.5,43.5-35.4c-20.2,7-35.3,15.6-45.4,24.4c-10.2,8.8-15.3,17.9-15.3,25.5c-2.6-8.9,7.8-31.8,15.6-38.4
			C125.6,37,114.7,49.6,112,58.6c-2.7,9.1,0.7,16.5,8.9,21.2c-8.7-4.3-18.8-10.9-19.9-30.2C84.3,76,104.5,90.2,125.8,91
			c-20.4,5.1-49.5-5.8-54.2-11.2c4,11.9,17,21.6,32.2,22.9c15.2,1.4,33.8-2,51.1-8.6c-24.1,15.3-68.2,20-80.7,18.8
			c12.6,3.9,29.8,5,44.9,3c23.6-3.1,46.7-15.1,65.2-29.6c-5.9,7.1-43.2,37-83.4,48.4c27.3-4.1,57.1-13.3,79.5-29.9
			c10.9-8.1,17.4-15.4,21.3-21.1c5.3-7.8,5.7-12.8,5.7-12.8s0,0,0,0c2.6,24.2-32.6,56.3-32.6,56.3c22.8-12,42.7-33.8,47-45.4
			c4.2-11.5,1.6-21.1-5.5-27.6c6.5,4.1,24.6,17.7,21.1,42.8c10.4-17.3,10.3-30.3,4.2-39.4c-6-9-18.1-14.2-32-15.7
			c16.8-4,52.2,10,58.5,17C262.4,46.5,250.8,39.3,236.8,36.1z M173.9,76.9c-0.8,0.4-1.6,0.9-2.5,1.2c-6.1,2.7-12.2,3.6-16.8,2.6
			c-4-0.5-7.1-2.2-8.4-4.8c-2.8-5.9,4-14.5,15.3-19.3c11.1-4.7,22.4-3.9,25.4,1.8C189.6,63.9,183.9,71.9,173.9,76.9z"/>
		
			<radialGradient id="SVGID_5_" cx="206.7973" cy="-165.6051" r="120.0314" gradientTransform="matrix(0.9144 8.820000e-02 -8.820000e-02 0.9144 -34.3238 207.9595)" gradientUnits="userSpaceOnUse">
			<stop  offset="0" style="stop-color:#FFCB31"/>
			<stop  offset="0.35" style="stop-color:#FFCB31"/>
			<stop  offset="0.74" style="stop-color:#E52432"/>
			<stop  offset="1" style="stop-color:#E52432"/>
		</radialGradient>
		<path class="st4" d="M236.8,36.1c-14-3.2-27-2.8-42.2,0.6c16.9-7.1,56.2-9.8,67.9-7.7c-16.1-5.2-33.6-5.9-50.1-3.5
			c-16.6,2.4-32.4,7.7-45.1,14.5c17-12,50.9-23.7,63.8-25.8c-20.5,1.6-38.6,6.4-53.5,12.8c-15,6.5-26.8,14.7-34.2,22.9
			c6.4-12.4,32.1-30.5,43.5-35.4c-20.2,7-35.3,15.6-45.4,24.4c-10.2,8.8-15.3,17.9-15.3,25.5c-2.6-8.9,7.8-31.8,15.6-38.4
			C125.6,37,114.7,49.6,112,58.6c-2.7,9.1,0.7,16.5,8.9,21.2c-8.7-4.3-18.8-10.9-19.9-30.2C84.3,76,104.5,90.2,125.8,91
			c-20.4,5.1-49.5-5.8-54.2-11.2c4,11.9,17,21.6,32.2,22.9c15.2,1.4,33.8-2,51.1-8.6c-24.1,15.3-68.2,20-80.7,18.8
			c12.6,3.9,29.8,5,44.9,3c23.6-3.1,46.7-15.1,65.2-29.6c-5.9,7.1-43.2,37-83.4,48.4c27.3-4.1,57.1-13.3,79.5-29.9
			c10.9-8.1,17.4-15.4,21.3-21.1c5.3-7.8,5.7-12.8,5.7-12.8s0,0,0,0c2.6,24.2-32.6,56.3-32.6,56.3c22.8-12,42.7-33.8,47-45.4
			c4.2-11.5,1.6-21.1-5.5-27.6c6.5,4.1,24.6,17.7,21.1,42.8c10.4-17.3,10.3-30.3,4.2-39.4c-6-9-18.1-14.2-32-15.7
			c16.8-4,52.2,10,58.5,17C262.4,46.5,250.8,39.3,236.8,36.1z M173.9,76.9c-0.8,0.4-1.6,0.9-2.5,1.2c-6.1,2.7-12.2,3.6-16.8,2.6
			c-4-0.5-7.1-2.2-8.4-4.8c-2.8-5.9,4-14.5,15.3-19.3c11.1-4.7,22.4-3.9,25.4,1.8C189.6,63.9,183.9,71.9,173.9,76.9z"/>
		<path class="st5" d="M154.6,80.8c4.5,0.9,10.7,0.1,16.8-2.6c0.9-0.4,1.7-0.8,2.5-1.2c-0.6,0.3-1.3,0.6-2,0.9
			C165.7,80.5,159.5,81.4,154.6,80.8z"/>
		
			<radialGradient id="SVGID_6_" cx="206.7974" cy="-165.605" r="120.0319" gradientTransform="matrix(0.9144 8.820000e-02 -8.820000e-02 0.9144 -34.3238 207.9595)" gradientUnits="userSpaceOnUse">
			<stop  offset="0" style="stop-color:#FFCB31"/>
			<stop  offset="0.35" style="stop-color:#FFCB31"/>
			<stop  offset="0.74" style="stop-color:#E52432"/>
			<stop  offset="1" style="stop-color:#E52432"/>
		</radialGradient>
		<path class="st6" d="M154.6,80.8c4.5,0.9,10.7,0.1,16.8-2.6c0.9-0.4,1.7-0.8,2.5-1.2c-0.6,0.3-1.3,0.6-2,0.9
			C165.7,80.5,159.5,81.4,154.6,80.8z"/>
	</g>
	<g>
		<radialGradient id="SVGID_7_" cx="135.3789" cy="200.6958" r="190.7159" gradientUnits="userSpaceOnUse">
			<stop  offset="1.428970e-02" style="stop-color:#BF956B"/>
			<stop  offset="0.4325" style="stop-color:#EBCD83"/>
			<stop  offset="1" style="stop-color:#A57F51"/>
		</radialGradient>
		<polygon class="st7" points="211.6,293.8 211.9,293.8 211.9,293.8 256.7,117.8 220.8,142.9 179.7,294 		"/>
		<radialGradient id="SVGID_8_" cx="135.3788" cy="200.696" r="190.7155" gradientUnits="userSpaceOnUse">
			<stop  offset="1.428970e-02" style="stop-color:#BF956B"/>
			<stop  offset="0.4325" style="stop-color:#EBCD83"/>
			<stop  offset="1" style="stop-color:#A57F51"/>
		</radialGradient>
		<polygon class="st8" points="49,155 11.3,294.1 42.3,294.1 65.7,208.2 100.6,245.7 157.1,207.4 133.5,294.1 135,294.1 135,294.2 
			135.3,294.1 153.2,294.1 164.2,294.2 203.3,153.9 109.1,217.8 		"/>
		<radialGradient id="SVGID_9_" cx="145.4747" cy="220.4875" r="0" gradientUnits="userSpaceOnUse">
			<stop  offset="1.428970e-02" style="stop-color:#BF956B"/>
			<stop  offset="0.4325" style="stop-color:#EBCD83"/>
			<stop  offset="1" style="stop-color:#A57F51"/>
		</radialGradient>
		<path class="st9" d="M145.5,220.5"/>
		<linearGradient id="SVGID_10_" gradientUnits="userSpaceOnUse" x1="107.6835" y1="294.4573" x2="106.9502" y2="154.414">
			<stop  offset="0" style="stop-color:#1C4178"/>
			<stop  offset="0.2492" style="stop-color:#1A4881"/>
			<stop  offset="0.6541" style="stop-color:#145B99"/>
			<stop  offset="1" style="stop-color:#0D6FB3"/>
		</linearGradient>
		<polygon class="st10" points="49,155 11.3,294.1 42.3,294.1 65.7,208.2 100.6,245.7 157.1,207.4 133.5,294.1 135,294.1 135,294.2 
			135.3,294.1 153.2,294.1 164.2,294.2 203.3,153.9 109.1,217.8 		"/>
		<g>
			<radialGradient id="SVGID_11_" cx="135.8017" cy="199.1463" r="189.2726" gradientUnits="userSpaceOnUse">
				<stop  offset="1.428970e-02" style="stop-color:#BF956B"/>
				<stop  offset="0.4325" style="stop-color:#EBCD83"/>
				<stop  offset="1" style="stop-color:#A57F51"/>
			</radialGradient>
			<polygon class="st11" points="12.2,291 49,155 109.1,217.8 203.3,153.9 192.4,193 210.4,181.1 220.8,142.9 256.7,117.8 
				246.1,159.6 256.1,153 269.1,101.4 110.1,207 45.2,140.6 2.5,296.9 5.7,295 			"/>
			<radialGradient id="SVGID_12_" cx="83.9274" cy="253.6453" r="99.0885" gradientUnits="userSpaceOnUse">
				<stop  offset="1.428970e-02" style="stop-color:#BF956B"/>
				<stop  offset="0.4325" style="stop-color:#EBCD83"/>
				<stop  offset="1" style="stop-color:#A57F51"/>
			</radialGradient>
			<polygon class="st12" points="154.4,217.3 157.1,207.4 100.6,245.7 65.7,208.2 42.3,294.1 20.4,294.1 10.8,299.9 48.7,299.9 
				68.9,222.1 98.9,255 133,231.8 133,231.7 137,229.1 146.5,222.6 			"/>
			<radialGradient id="SVGID_13_" cx="189.7797" cy="231.4275" r="107.29" gradientUnits="userSpaceOnUse">
				<stop  offset="1.428970e-02" style="stop-color:#BF956B"/>
				<stop  offset="0.4325" style="stop-color:#EBCD83"/>
				<stop  offset="1" style="stop-color:#A57F51"/>
			</radialGradient>
			<polygon class="st13" points="243.5,169.5 211.9,293.8 211.9,293.8 211.6,293.8 179.7,294 207.7,191.1 189.6,203.1 164.2,294.2 
				153.2,294.1 135.3,294.1 135,294.2 135,294.1 133.5,294.1 151.5,227.8 143.8,232.9 125.9,300 219.3,300 253.6,162.9 			"/>
		</g>
		
			<linearGradient id="SVGID_14_" gradientUnits="userSpaceOnUse" x1="218.6651" y1="295.4067" x2="218.6651" y2="119.6978" gradientTransform="matrix(1 -5.200000e-03 5.200000e-03 1 -1.5349 -0.5183)">
			<stop  offset="0" style="stop-color:#1C4178"/>
			<stop  offset="0.2492" style="stop-color:#1A4881"/>
			<stop  offset="0.6541" style="stop-color:#145B99"/>
			<stop  offset="1" style="stop-color:#0D6FB3"/>
		</linearGradient>
		<polygon class="st14" points="211.6,293.8 211.9,293.8 211.9,293.8 256.7,117.8 220.8,142.9 179.7,294 		"/>
	</g>
</g>
</svg>
